<svg xmlns="http://www.w3.org/2000/svg" viewBox="0 0 61.42 74.04">
  <defs>
    <style>
      .cls-1 {
        fill: #38a6d8;
      }

      .cls-2 {
        fill: #e5ff2c;
      }
    </style>
  </defs>
  <title>birdi</title>
  <g id="Layer_2" data-name="Layer 2">
    <g id="Layer_1-2" data-name="Layer 1">
      <path class="cls-1" d="M59.37,65.93a9.56,9.56,0,0,1-10.81-1.59C42.62,58.8,43.2,48.89,45.88,41A16.71,16.71,0,0,1,59.46,29.87h0C57.84,44.74,53.74,60.67,59.37,65.93Z"/>
      <path class="cls-2" d="M59.51,29.71h0C61.19,13.95,60-.61,41.46,0,20,.75,20.21,20.09,19.21,35.82c-.31,4.89-.74,9.44-2,13-1.34,3.82-3.63,6.46-7.75,7a2.87,2.87,0,0,1-2-.48c-2.44-1.73-3.71,1-.9,3.82l-.14.27c-3.64-3.4-5-.09-1.57,3.13l-.11.21c-4-3-7.23-.72-2.06,4.1,18.69,17.46,45.89-2.55,45.89-2.55C42.62,58.8,43.2,48.89,45.88,41A16.66,16.66,0,0,1,57.15,30.35,16.65,16.65,0,0,0,46.57,41.56c-2.24,8.05-2.26,18,4,23.18a9.56,9.56,0,0,0,10.89,1C55.51,60.79,58.72,44.65,59.51,29.71Z"/>
      <path class="cls-1" d="M29.86,24.29a4.08,4.08,0,0,1-3-1.2.24.24,0,0,1,.35-.35,4.14,4.14,0,0,0,5.52,0,.24.24,0,1,1,.35.35A4.9,4.9,0,0,1,29.86,24.29Z"/>
      <path class="cls-1" d="M45.07,25.64a4.87,4.87,0,0,1-3.5-1.56.24.24,0,0,1,.35-.35,4.47,4.47,0,0,0,6.5,0,.24.24,0,0,1,.35.35A5.4,5.4,0,0,1,45.07,25.64Z"/>
      <path class="cls-1" d="M32,36.61s0-3.2,2.17-3.81c-1.58.2-5.1.44-5.1-1.08,0-2,5.87-6.84,9.78-2.93S37.83,36.61,32,36.61Z"/>
      <path class="cls-1" d="M37.28,64.27c.05-1,2.27-2.23,2.48-1a1.84,1.84,0,0,1-.44,1.49c-.39.41-2,.9-2-.4C37.28,64.29,37.28,64.28,37.28,64.27Z"/>
      <path class="cls-1" d="M40.19,47.74c-1-.26-1.34-1.7,0-1.63.72.06,1.23.88.59,1.43A.69.69,0,0,1,40.19,47.74Z"/>
      <path class="cls-1" d="M41.11,55.24a.57.57,0,0,1,.07-.12c.28-.35,1.22-.31,1.58-.1a1.25,1.25,0,0,1,.31,1.3c-.25.39-1,.29-1.35.13S40.92,55.67,41.11,55.24Z"/>
      <path class="cls-1" d="M43.55,66a.81.81,0,0,1-.17.5c-.79,1-2.18.1-1.63-1.11.73-.26,1.18-.68,1.69.2A.8.8,0,0,1,43.55,66Z"/>
      <path class="cls-1" d="M43.5,41.66a1,1,0,0,1,1.09.88c-.6.86-1.22.1-1.45-.13C42.71,42,43,41.69,43.5,41.66Z"/>
      <path class="cls-1" d="M36.78,58.12a.67.67,0,0,1-.31-1C37.56,55.81,38.31,58.47,36.78,58.12Z"/>
      <path class="cls-1" d="M36.22,54a2.27,2.27,0,0,1-.18.42c-.33.62-1.38.21-1.22-.64C34.94,53,36.46,53.12,36.22,54Z"/>
      <path class="cls-1" d="M42.67,45.91c-.48,0-.35-.39-.43-.63,0-.08.18-.35.28-.35a6.92,6.92,0,0,1,1,.19c0,.16,0,.39-.13.48s-.29.61-.69.32l.06-.19,0,0Z"/>
      <path class="cls-1" d="M33.5,60.89a1.21,1.21,0,0,1,1.35-.37c1.06.85-.82,1.55-1.34,1.12C33.2,61.21,33.31,61.14,33.5,60.89Z"/>
      <path class="cls-1" d="M32.16,68.86a1.75,1.75,0,0,1,.15-.39c.26-.29.62-.14.86.12s.69,1.24,0,1.26a3.23,3.23,0,0,1-.74,0c-.16,0-.68-.43-.28-.48C32,69.4,32.08,69.12,32.16,68.86Z"/>
      <path class="cls-1" d="M43.22,61.16a.94.94,0,0,1,1.27-.31c.62.44.14,1.24-.42,1.34-.33.06-1,0-1-.56A.84.84,0,0,1,43.22,61.16Z"/>
      <path class="cls-1" d="M35.6,67l.13-.2a1,1,0,0,1,.67-.42c.12,0,.19.13.24.24.35.77.7,1.27-.24,1.66-.29.12-.47.42-.82.33a.7.7,0,0,1-.41-1A5.36,5.36,0,0,0,35.6,67Z"/>
      <path class="cls-1" d="M41.39,49.54c.52-.51,1.47.17,1.49.64-.28.87-1.06.59-1.49.33A.61.61,0,0,1,41.39,49.54Z"/>
      <path class="cls-1" d="M42.71,53.18c-.34,1.48-2.59-1.11-.62-.79A.75.75,0,0,1,42.71,53.18Z"/>
      <path class="cls-1" d="M44.45,40c.21.4.67.28.72-.16C45.27,39.09,44.13,39.45,44.45,40Z"/>
      <path class="cls-1" d="M34.39,69.8c-.19.19-.23.55.11.64s.73-.65.25-.76A.38.38,0,0,0,34.39,69.8Z"/>
      <path class="cls-1" d="M39.74,43.92c.21.4.67.28.72-.16C40.56,43,39.43,43.33,39.74,43.92Z"/>
      <path class="cls-1" d="M43.75,58.16c.21.4.67.28.72-.16C44.57,57.2,43.44,57.56,43.75,58.16Z"/>
      <path class="cls-1" d="M37.8,49.36a.43.43,0,0,1-.09.26c-.42.53-1.15.05-.86-.58.39-.14.62-.36.9.11A.42.42,0,0,1,37.8,49.36Z"/>
      <path class="cls-1" d="M45,64a.51.51,0,0,1-.11.32c-.5.63-1.39.06-1-.7.46-.17.75-.43,1.08.13A.51.51,0,0,1,45,64Z"/>
      <path class="cls-1" d="M40.27,57.94a.42.42,0,0,1-.09.26c-.41.51-1.13.05-.84-.57.38-.14.61-.35.88.11A.41.41,0,0,1,40.27,57.94Z"/>
      <path class="cls-1" d="M38.93,50.75a.56.56,0,0,1,.63-.17c.5.39-.38.72-.63.52S38.84,50.87,38.93,50.75Z"/>
      <path class="cls-1" d="M39.1,67.18c-.19.19-.23.55.11.64s.73-.65.25-.76A.38.38,0,0,0,39.1,67.18Z"/>
      <path class="cls-1" d="M36.74,61.56c.16.3.5.21.54-.12C37.36,60.84,36.51,61.11,36.74,61.56Z"/>
      <path class="cls-1" d="M34.52,64.53a.84.84,0,0,1-.17,1.54c-.54.22-.75-.11-.79-.41a3,3,0,0,1,.1-1.12.53.53,0,0,1,.4-.3c.14,0,.29.17.44.27Z"/>
      <path class="cls-1" d="M40.86,60.15a1.75,1.75,0,0,1,.39.15c.29.26.14.62-.13.86s-1.24.69-1.26,0a3.23,3.23,0,0,1,0-.74c0-.16.43-.68.48-.28C40.32,60,40.6,60.07,40.86,60.15Z"/>
      <path class="cls-1" d="M39.45,53.55l.2.13a1,1,0,0,1,.42.67c0,.12-.13.19-.24.24-.77.35-1.27.7-1.65-.24-.12-.29-.42-.47-.33-.82a.7.7,0,0,1,1-.4A5.36,5.36,0,0,0,39.45,53.55Z"/>
      <path class="cls-1" d="M34.89,57.22c-.19-.19-.55-.23-.64.11s.65.73.76.25A.38.38,0,0,0,34.89,57.22Z"/>
      <path class="cls-1" d="M46.49,63.74c-.3.16-.21.5.12.54C47.2,64.36,46.93,63.51,46.49,63.74Z"/>
      <path class="cls-1" d="M24.68,53.24a.27.27,0,0,0-.36.1,12.94,12.94,0,0,1-3.53,3.86l-3.21-.85a.26.26,0,0,0-.14.51l2.73.72a6.78,6.78,0,0,1-2.4.85.26.26,0,0,0,.07.52A7.37,7.37,0,0,0,20.45,58l-.51,2.4a.26.26,0,0,0,.2.31h.09a.26.26,0,0,0,.22-.21l.62-2.9a13.12,13.12,0,0,0,3.71-4.06A.27.27,0,0,0,24.68,53.24Z"/>
      <path class="cls-1" d="M29.92,60a.27.27,0,0,0-.36.1A12.94,12.94,0,0,1,26,64l-3.21-.85a.26.26,0,1,0-.14.51l2.73.72a6.78,6.78,0,0,1-2.4.85.26.26,0,1,0,.07.52,7.37,7.37,0,0,0,2.61-.92l-.51,2.4a.26.26,0,0,0,.2.31h.09a.26.26,0,0,0,.22-.21l.62-2.9A13.12,13.12,0,0,0,30,60.4.27.27,0,0,0,29.92,60Z"/>
    </g>
  </g>
</svg>
